<svg width="67" height="61" viewBox="0 0 67 61" fill="none" xmlns="http://www.w3.org/2000/svg">
<ellipse cx="33.5" cy="30.5" rx="33.5" ry="30.5" transform="matrix(-1 0 0 1 67 0)" fill="#2D2A54"/>
<path d="M23.8684 46.5126H43.131C44.0482 46.5126 44.5068 46.9573 44.5068 47.8469C44.5068 48.7365 44.0482 49.1813 43.131 49.1813H23.8684C22.9512 49.1813 22.4926 48.7365 22.4926 47.8469C22.4926 46.9573 22.9512 46.5126 23.8684 46.5126Z" fill="#D7D8F0"/>
<path d="M45.8827 26.4969C45.8827 23.3119 44.5781 20.2572 42.2558 18.005C39.9336 15.7528 36.7839 14.4876 33.4997 14.4876C30.2155 14.4876 27.0658 15.7528 24.7436 18.005C22.4213 20.2572 21.1167 23.3119 21.1167 26.4969C21.1167 31.4235 25.181 37.8445 33.4997 45.5358C41.8183 37.8445 45.8827 31.4235 45.8827 26.4969ZM33.4997 49.1813C23.4089 40.2864 18.3649 32.7231 18.3649 26.4969C18.3649 22.6041 19.9594 18.8706 22.7978 16.1179C25.6361 13.3653 29.4857 11.8188 33.4997 11.8188C37.5137 11.8188 41.3633 13.3653 44.2016 16.1179C47.04 18.8706 48.6345 22.6041 48.6345 26.4969C48.6345 32.7231 43.5905 40.2864 33.4997 49.1813Z" fill="#D7D8F0"/>
<path d="M33.4997 30.5C34.5944 30.5 35.6443 30.0783 36.4184 29.3276C37.1925 28.5768 37.6274 27.5586 37.6274 26.4969C37.6274 25.4352 37.1925 24.417 36.4184 23.6663C35.6443 22.9155 34.5944 22.4938 33.4997 22.4938C32.405 22.4938 31.3551 22.9155 30.581 23.6663C29.8069 24.417 29.372 25.4352 29.372 26.4969C29.372 27.5586 29.8069 28.5768 30.581 29.3276C31.3551 30.0783 32.405 30.5 33.4997 30.5ZM33.4997 33.1688C31.6752 33.1688 29.9253 32.4659 28.6352 31.2146C27.345 29.9634 26.6202 28.2664 26.6202 26.4969C26.6202 24.7274 27.345 23.0304 28.6352 21.7792C29.9253 20.528 31.6752 19.825 33.4997 19.825C35.3243 19.825 37.0741 20.528 38.3642 21.7792C39.6544 23.0304 40.3792 24.7274 40.3792 26.4969C40.3792 28.2664 39.6544 29.9634 38.3642 31.2146C37.0741 32.4659 35.3243 33.1688 33.4997 33.1688Z" fill="#D7D8F0"/>
</svg>
